0
SECTION
2
HEADER
9
$ACADVER
1
AC1009
0
ENDSEC
0
SECTION
2
TABLES
0
TABLE
2
LAYER
70
6
0
LAYER
2
OBJECT
70
0
62
7
6
CONTINUOUS
0
LAYER
2
CENTER
70
0
62
4
6
CONTINUOUS
0
LAYER
2
DIM
70
0
62
2
6
CONTINUOUS
0
LAYER
2
TEXT
70
0
62
7
6
CONTINUOUS
0
LAYER
2
HATCH
70
0
62
8
6
CONTINUOUS
0
LAYER
2
BORDER
70
0
62
7
6
CONTINUOUS
0
ENDTAB
0
ENDSEC
0
SECTION
2
ENTITIES
0
LINE
8
BORDER
10
0
20
0
30
0
11
420
21
0
31
0
0
LINE
8
BORDER
10
420
20
0
30
0
11
420
21
285
31
0
0
LINE
8
BORDER
10
420
20
285
30
0
11
0
21
285
31
0
0
LINE
8
BORDER
10
0
20
285
30
0
11
0
21
0
31
0
0
TEXT
8
TEXT
10
6
20
277
30
0
40
4
1
5. 顶尖（LJT03.05）
50
0
7
STANDARD
0
LINE
8
CENTER
10
80
20
150
30
0
11
310
21
150
31
0
0
LINE
8
OBJECT
10
90
20
150
30
0
11
125
21
165
31
0
0
LINE
8
OBJECT
10
90
20
150
30
0
11
125
21
135
31
0
0
LINE
8
OBJECT
10
125
20
135
30
0
11
125
21
165
31
0
0
LINE
8
OBJECT
10
125
20
120
30
0
11
150
21
120
31
0
0
LINE
8
OBJECT
10
125
20
180
30
0
11
150
21
180
31
0
0
LINE
8
OBJECT
10
150
20
120
30
0
11
150
21
180
31
0
0
LINE
8
OBJECT
10
125
20
120
30
0
11
125
21
180
31
0
0
CIRCLE
8
OBJECT
10
137.5
20
150
30
0
40
9
0
LINE
8
CENTER
10
123.5
20
150
30
0
11
151.5
21
150
31
0
0
LINE
8
CENTER
10
137.5
20
136
30
0
11
137.5
21
164
31
0
0
LINE
8
OBJECT
10
150
20
105
30
0
11
160
21
105
31
0
0
LINE
8
OBJECT
10
150
20
195
30
0
11
160
21
195
31
0
0
LINE
8
OBJECT
10
150
20
105
30
0
11
150
21
195
31
0
0
LINE
8
OBJECT
10
160
20
105
30
0
11
160
21
195
31
0
0
LINE
8
OBJECT
10
160
20
127.634
30
0
11
285
21
120
31
0
0
LINE
8
OBJECT
10
160
20
172.36599999999999
30
0
11
285
21
180
31
0
0
LINE
8
OBJECT
10
285
20
120
30
0
11
285
21
180
31
0
0
LINE
8
OBJECT
10
235
20
120
30
0
11
235
21
180
31
0
0
LINE
8
HATCH
10
235
20
120
30
0
11
235
21
180
31
0
0
LINE
8
HATCH
10
239
20
120
30
0
11
235
21
180
31
0
0
LINE
8
HATCH
10
243
20
120
30
0
11
235
21
180
31
0
0
LINE
8
HATCH
10
247
20
120
30
0
11
235
21
180
31
0
0
LINE
8
HATCH
10
251
20
120
30
0
11
235
21
180
31
0
0
LINE
8
HATCH
10
255
20
120
30
0
11
235
21
180
31
0
0
LINE
8
HATCH
10
259
20
120
30
0
11
235
21
180
31
0
0
LINE
8
HATCH
10
263
20
120
30
0
11
235
21
180
31
0
0
LINE
8
HATCH
10
267
20
120
30
0
11
235
21
180
31
0
0
LINE
8
HATCH
10
271
20
120
30
0
11
235
21
180
31
0
0
LINE
8
HATCH
10
275
20
120
30
0
11
235
21
180
31
0
0
LINE
8
HATCH
10
279
20
120
30
0
11
235
21
180
31
0
0
LINE
8
HATCH
10
283
20
120
30
0
11
235
21
180
31
0
0
LINE
8
OBJECT
10
245
20
138
30
0
11
280
21
138
31
0
0
LINE
8
OBJECT
10
245
20
162
30
0
11
280
21
162
31
0
0
LINE
8
OBJECT
10
245
20
138
30
0
11
245
21
162
31
0
0
LINE
8
OBJECT
10
280
20
138
30
0
11
280
21
162
31
0
0
LINE
8
OBJECT
10
240
20
142
30
0
11
245
21
138
31
0
0
LINE
8
OBJECT
10
240
20
158
30
0
11
245
21
162
31
0
0
LINE
8
OBJECT
10
240
20
142
30
0
11
240
21
158
31
0
0
TEXT
8
TEXT
10
95
20
170
30
0
40
4
1
60°
50
0
7
STANDARD
0
TEXT
8
TEXT
10
68
20
184
30
0
40
4
1
φ30
50
90
7
STANDARD
0
TEXT
8
TEXT
10
32
20
190
30
0
40
4
1
φ60js6
50
90
7
STANDARD
0
TEXT
8
TEXT
10
133
20
93
30
0
40
4
1
25
50
0
7
STANDARD
0
TEXT
8
TEXT
10
152
20
93
30
0
40
4
1
10
50
0
7
STANDARD
0
TEXT
8
TEXT
10
222
20
93
30
0
40
4
1
125
50
0
7
STANDARD
0
TEXT
8
TEXT
10
190
20
67
30
0
40
4
1
190
50
0
7
STANDARD
0
TEXT
8
TEXT
10
174
20
183
30
0
40
4
1
φ44.732
50
90
7
STANDARD
0
TEXT
8
TEXT
10
188
20
188
30
0
40
4
1
φ90
50
90
7
STANDARD
0
TEXT
8
TEXT
10
230
20
198
30
0
40
4
1
其余锥度 5° (1:19.002)
50
0
7
STANDARD
0
TEXT
8
TEXT
10
259
20
123
30
0
40
4
1
40
50
0
7
STANDARD
0
TEXT
8
TEXT
10
253
20
111
30
0
40
4
1
50
50
0
7
STANDARD
0
TEXT
8
TEXT
10
293
20
159
30
0
40
4
1
M20-6H
50
90
7
STANDARD
0
TEXT
8
TEXT
10
76
20
245
30
0
40
4
1
↗  0.025   A-B
50
0
7
STANDARD
0
TEXT
8
TEXT
10
78
20
226
30
0
40
4
1
Ra1.6
50
0
7
STANDARD
0
TEXT
8
TEXT
10
105
20
213
30
0
40
4
1
Ra0.8
50
0
7
STANDARD
0
TEXT
8
TEXT
10
135
20
254
30
0
40
4
1
Ra1.6
50
90
7
STANDARD
0
TEXT
8
TEXT
10
170
20
195
30
0
40
4
1
A
50
0
7
STANDARD
0
TEXT
8
TEXT
10
122
20
120
30
0
40
4
1
B
50
0
7
STANDARD
0
TEXT
8
TEXT
10
60
20
108
30
0
40
4
1
C
50
0
7
STANDARD
0
TEXT
8
TEXT
10
100
20
85
30
0
40
4
1
↗  0.025   C
50
0
7
STANDARD
0
TEXT
8
TEXT
10
267
20
208
30
0
40
4
1
Ra1.6
50
0
7
STANDARD
0
TEXT
8
TEXT
10
297
20
178
30
0
40
4
1
Ra3.2
50
90
7
STANDARD
0
CIRCLE
8
OBJECT
10
115
20
55
30
0
40
27
0
LINE
8
HATCH
10
88
20
28
30
0
11
88
21
82
31
0
0
LINE
8
HATCH
10
92
20
28
30
0
11
88
21
82
31
0
0
LINE
8
HATCH
10
96
20
28
30
0
11
88
21
82
31
0
0
LINE
8
HATCH
10
100
20
28
30
0
11
88
21
82
31
0
0
LINE
8
HATCH
10
104
20
28
30
0
11
88
21
82
31
0
0
LINE
8
HATCH
10
108
20
28
30
0
11
88
21
82
31
0
0
LINE
8
HATCH
10
112
20
28
30
0
11
88
21
82
31
0
0
LINE
8
HATCH
10
116
20
28
30
0
11
88
21
82
31
0
0
LINE
8
HATCH
10
120
20
28
30
0
11
88
21
82
31
0
0
LINE
8
HATCH
10
124
20
28
30
0
11
88
21
82
31
0
0
LINE
8
HATCH
10
128
20
28
30
0
11
88
21
82
31
0
0
LINE
8
HATCH
10
132
20
28
30
0
11
88
21
82
31
0
0
LINE
8
HATCH
10
136
20
28
30
0
11
88
21
82
31
0
0
LINE
8
HATCH
10
140
20
28
30
0
11
88
21
82
31
0
0
LINE
8
CENTER
10
83
20
55
30
0
11
147
21
55
31
0
0
LINE
8
CENTER
10
115
20
23
30
0
11
115
21
87
31
0
0
LINE
8
OBJECT
10
138
20
64
30
0
11
156
21
64
31
0
0
LINE
8
OBJECT
10
138
20
46
30
0
11
156
21
46
31
0
0
LINE
8
OBJECT
10
156
20
46
30
0
11
156
21
64
31
0
0
TEXT
8
TEXT
10
95
20
13
30
0
40
4
1
54  0/-0.2
50
0
7
STANDARD
0
TEXT
8
TEXT
10
149
20
53
30
0
40
4
1
18H9
50
90
7
STANDARD
0
TEXT
8
TEXT
10
149
20
83
30
0
40
4
1
Ra3.2
50
90
7
STANDARD
0
TEXT
8
TEXT
10
163
20
23
30
0
40
4
1
Ra6.3
50
0
7
STANDARD
0
TEXT
8
TEXT
10
332
20
178
30
0
40
5
1
技术要求
50
0
7
STANDARD
0
TEXT
8
TEXT
10
297
20
162
30
0
40
3.5
1
1. 顶尖端部淬火，硬度为40～45HRC。
50
0
7
STANDARD
0
TEXT
8
TEXT
10
297
20
150
30
0
40
3.5
1
2. 未注倒角C1。
50
0
7
STANDARD
0
TEXT
8
TEXT
10
297
20
138
30
0
40
3.5
1
3. 未注尺寸公差按GB/T 1804-2000-m。
50
0
7
STANDARD
0
TEXT
8
TEXT
10
297
20
126
30
0
40
3.5
1
4. 未注几何公差按GB/T 1184-1996-K。
50
0
7
STANDARD
0
LINE
8
BORDER
10
215
20
0
30
0
11
420
21
0
31
0
0
LINE
8
BORDER
10
215
20
15
30
0
11
420
21
15
31
0
0
LINE
8
BORDER
10
215
20
30
30
0
11
420
21
30
31
0
0
LINE
8
BORDER
10
215
20
45
30
0
11
420
21
45
31
0
0
LINE
8
BORDER
10
215
20
70
30
0
11
420
21
70
31
0
0
LINE
8
BORDER
10
215
20
0
30
0
11
215
21
70
31
0
0
LINE
8
BORDER
10
300
20
0
30
0
11
300
21
70
31
0
0
LINE
8
BORDER
10
350
20
0
30
0
11
350
21
70
31
0
0
LINE
8
BORDER
10
420
20
0
30
0
11
420
21
70
31
0
0
TEXT
8
TEXT
10
320
20
52
30
0
40
4
1
合肥工业大学
50
0
7
STANDARD
0
TEXT
8
TEXT
10
325
20
31
30
0
40
5
1
顶尖
50
0
7
STANDARD
0
TEXT
8
TEXT
10
317
20
10
30
0
40
5
1
LJT03.05
50
0
7
STANDARD
0
TEXT
8
TEXT
10
238
20
52
30
0
40
6
1
45
50
0
7
STANDARD
0
LINE
8
BORDER
10
215
20
0
30
0
11
300
21
0
31
0
0
LINE
8
BORDER
10
215
20
0
30
0
11
215
21
70
31
0
0
LINE
8
BORDER
10
227
20
0
30
0
11
227
21
70
31
0
0
LINE
8
BORDER
10
239
20
0
30
0
11
239
21
70
31
0
0
LINE
8
BORDER
10
251
20
0
30
0
11
251
21
70
31
0
0
LINE
8
BORDER
10
263
20
0
30
0
11
263
21
70
31
0
0
LINE
8
BORDER
10
275
20
0
30
0
11
275
21
70
31
0
0
LINE
8
BORDER
10
287
20
0
30
0
11
287
21
70
31
0
0
LINE
8
BORDER
10
215
20
0
30
0
11
300
21
0
31
0
0
LINE
8
BORDER
10
215
20
10
30
0
11
300
21
10
31
0
0
LINE
8
BORDER
10
215
20
20
30
0
11
300
21
20
31
0
0
LINE
8
BORDER
10
215
20
30
30
0
11
300
21
30
31
0
0
LINE
8
BORDER
10
215
20
40
30
0
11
300
21
40
31
0
0
LINE
8
BORDER
10
215
20
50
30
0
11
300
21
50
31
0
0
LINE
8
BORDER
10
215
20
60
30
0
11
300
21
60
31
0
0
LINE
8
BORDER
10
215
20
70
30
0
11
300
21
70
31
0
0
TEXT
8
TEXT
10
217
20
43
30
0
40
2.8
1
标记 处数 分区 更改文件号 签名 年月日
50
0
7
STANDARD
0
TEXT
8
TEXT
10
217
20
26
30
0
40
2.8
1
设计  制图  审核  工艺
50
0
7
STANDARD
0
TEXT
8
TEXT
10
360
20
86
30
0
40
4
1
Ra12.5  √
50
0
7
STANDARD
0
ENDSEC
0
EOF