0
SECTION
2
HEADER
9
$ACADVER
1
AC1009
9
$DWGCODEPAGE
3
ANSI_1252
0
ENDSEC
0
SECTION
2
TABLES
0
TABLE
2
LTYPE
70
1
0
LTYPE
2
CONTINUOUS
70
0
3
Solid line
72
65
73
0
40
0.0
0
ENDTAB
0
TABLE
2
LAYER
70
7
0
LAYER
2
OBJECT
70
0
62
7
6
CONTINUOUS
0
LAYER
2
CENTER
70
0
62
4
6
CONTINUOUS
0
LAYER
2
DIM
70
0
62
2
6
CONTINUOUS
0
LAYER
2
TEXT
70
0
62
7
6
CONTINUOUS
0
LAYER
2
HATCH
70
0
62
8
6
CONTINUOUS
0
LAYER
2
BORDER
70
0
62
7
6
CONTINUOUS
0
LAYER
2
SYMBOL
70
0
62
3
6
CONTINUOUS
0
ENDTAB
0
ENDSEC
0
SECTION
2
ENTITIES
0
POLYLINE
8
BORDER
66
1
70
1
0
VERTEX
8
BORDER
10
0.000
20
0.000
30
0
0
VERTEX
8
BORDER
10
420.000
20
0.000
30
0
0
VERTEX
8
BORDER
10
420.000
20
285.000
30
0
0
VERTEX
8
BORDER
10
0.000
20
285.000
30
0
0
SEQEND
0
TEXT
8
TEXT
10
7.000
20
276.000
30
0
40
4.000
1
5. Dingjian / Center Point (LJT03.05)
50
0.000
7
STANDARD
0
LINE
8
CENTER
10
80.000
20
150.000
30
0
11
291.000
21
150.000
31
0
0
LINE
8
OBJECT
10
88.000
20
150.000
30
0
11
123.000
21
165.000
31
0
0
LINE
8
OBJECT
10
88.000
20
150.000
30
0
11
123.000
21
135.000
31
0
0
LINE
8
OBJECT
10
123.000
20
135.000
30
0
11
123.000
21
165.000
31
0
0
LINE
8
CENTER
10
81.000
20
150.000
30
0
11
127.000
21
150.000
31
0
0
POLYLINE
8
OBJECT
66
1
70
1
0
VERTEX
8
OBJECT
10
123.000
20
120.000
30
0
0
VERTEX
8
OBJECT
10
148.000
20
120.000
30
0
0
VERTEX
8
OBJECT
10
148.000
20
180.000
30
0
0
VERTEX
8
OBJECT
10
123.000
20
180.000
30
0
0
SEQEND
0
CIRCLE
8
OBJECT
10
135.500
20
150.000
30
0
40
9.000
0
LINE
8
CENTER
10
121.500
20
150.000
30
0
11
149.500
21
150.000
31
0
0
LINE
8
CENTER
10
135.500
20
136.000
30
0
11
135.500
21
164.000
31
0
0
POLYLINE
8
OBJECT
66
1
70
1
0
VERTEX
8
OBJECT
10
148.000
20
105.000
30
0
0
VERTEX
8
OBJECT
10
158.000
20
105.000
30
0
0
VERTEX
8
OBJECT
10
158.000
20
195.000
30
0
0
VERTEX
8
OBJECT
10
148.000
20
195.000
30
0
0
SEQEND
0
LINE
8
OBJECT
10
149.000
20
108.000
30
0
11
149.000
21
192.000
31
0
0
LINE
8
OBJECT
10
157.000
20
108.000
30
0
11
157.000
21
192.000
31
0
0
LINE
8
OBJECT
10
140.000
20
120.000
30
0
11
140.000
21
105.000
31
0
0
LINE
8
OBJECT
10
140.000
20
180.000
30
0
11
140.000
21
195.000
31
0
0
LINE
8
OBJECT
10
158.000
20
127.634
30
0
11
283.000
21
120.000
31
0
0
LINE
8
OBJECT
10
158.000
20
172.366
30
0
11
283.000
21
180.000
31
0
0
LINE
8
OBJECT
10
283.000
20
120.000
30
0
11
283.000
21
180.000
31
0
0
ARC
8
OBJECT
10
225.000
20
150.000
30
0
40
18.000
50
270.000
51
90.000
0
LINE
8
OBJECT
10
233.000
20
120.000
30
0
11
283.000
21
120.000
31
0
0
LINE
8
OBJECT
10
233.000
20
180.000
30
0
11
283.000
21
180.000
31
0
0
LINE
8
OBJECT
10
233.000
20
120.000
30
0
11
233.000
21
180.000
31
0
0
LINE
8
HATCH
10
233.000
20
180.000
30
0
11
233.000
21
180.000
31
0
0
LINE
8
HATCH
10
233.000
20
175.000
30
0
11
238.000
21
180.000
31
0
0
LINE
8
HATCH
10
233.000
20
170.000
30
0
11
243.000
21
180.000
31
0
0
LINE
8
HATCH
10
233.000
20
165.000
30
0
11
248.000
21
180.000
31
0
0
LINE
8
HATCH
10
233.000
20
160.000
30
0
11
253.000
21
180.000
31
0
0
LINE
8
HATCH
10
233.000
20
155.000
30
0
11
258.000
21
180.000
31
0
0
LINE
8
HATCH
10
233.000
20
150.000
30
0
11
263.000
21
180.000
31
0
0
LINE
8
HATCH
10
233.000
20
145.000
30
0
11
268.000
21
180.000
31
0
0
LINE
8
HATCH
10
233.000
20
140.000
30
0
11
273.000
21
180.000
31
0
0
LINE
8
HATCH
10
233.000
20
135.000
30
0
11
278.000
21
180.000
31
0
0
LINE
8
HATCH
10
233.000
20
130.000
30
0
11
283.000
21
180.000
31
0
0
LINE
8
HATCH
10
233.000
20
125.000
30
0
11
283.000
21
175.000
31
0
0
LINE
8
HATCH
10
233.000
20
120.000
30
0
11
283.000
21
170.000
31
0
0
LINE
8
HATCH
10
238.000
20
120.000
30
0
11
283.000
21
165.000
31
0
0
LINE
8
HATCH
10
243.000
20
120.000
30
0
11
283.000
21
160.000
31
0
0
LINE
8
HATCH
10
248.000
20
120.000
30
0
11
283.000
21
155.000
31
0
0
LINE
8
HATCH
10
253.000
20
120.000
30
0
11
283.000
21
150.000
31
0
0
LINE
8
HATCH
10
258.000
20
120.000
30
0
11
283.000
21
145.000
31
0
0
LINE
8
HATCH
10
263.000
20
120.000
30
0
11
283.000
21
140.000
31
0
0
LINE
8
HATCH
10
268.000
20
120.000
30
0
11
283.000
21
135.000
31
0
0
LINE
8
HATCH
10
273.000
20
120.000
30
0
11
283.000
21
130.000
31
0
0
LINE
8
HATCH
10
278.000
20
120.000
30
0
11
283.000
21
125.000
31
0
0
POLYLINE
8
OBJECT
66
1
70
0
0
VERTEX
8
OBJECT
10
243.000
20
138.000
30
0
0
VERTEX
8
OBJECT
10
278.000
20
138.000
30
0
0
VERTEX
8
OBJECT
10
278.000
20
162.000
30
0
0
VERTEX
8
OBJECT
10
243.000
20
162.000
30
0
0
SEQEND
0
LINE
8
OBJECT
10
238.000
20
142.000
30
0
11
243.000
21
138.000
31
0
0
LINE
8
OBJECT
10
238.000
20
158.000
30
0
11
243.000
21
162.000
31
0
0
LINE
8
OBJECT
10
238.000
20
142.000
30
0
11
238.000
21
158.000
31
0
0
LINE
8
CENTER
10
235.000
20
150.000
30
0
11
288.000
21
150.000
31
0
0
LINE
8
DIM
10
88.000
20
120.000
30
0
11
88.000
21
55.000
31
0
0
LINE
8
DIM
10
283.000
20
120.000
30
0
11
283.000
21
55.000
31
0
0
LINE
8
DIM
10
88.000
20
55.000
30
0
11
283.000
21
55.000
31
0
0
POLYLINE
8
DIM
66
1
70
1
0
VERTEX
8
DIM
10
88.000
20
55.000
30
0
0
VERTEX
8
DIM
10
85.000
20
56.050
30
0
0
VERTEX
8
DIM
10
85.000
20
53.950
30
0
0
SEQEND
0
POLYLINE
8
DIM
66
1
70
1
0
VERTEX
8
DIM
10
283.000
20
55.000
30
0
0
VERTEX
8
DIM
10
286.000
20
53.950
30
0
0
VERTEX
8
DIM
10
286.000
20
56.050
30
0
0
SEQEND
0
TEXT
8
TEXT
10
180.500
20
58.000
30
0
40
3.200
1
190
50
0.000
7
STANDARD
0
LINE
8
DIM
10
158.000
20
127.634
30
0
11
158.000
21
83.000
31
0
0
LINE
8
DIM
10
283.000
20
127.634
30
0
11
283.000
21
83.000
31
0
0
LINE
8
DIM
10
158.000
20
83.000
30
0
11
283.000
21
83.000
31
0
0
POLYLINE
8
DIM
66
1
70
1
0
VERTEX
8
DIM
10
158.000
20
83.000
30
0
0
VERTEX
8
DIM
10
155.000
20
84.050
30
0
0
VERTEX
8
DIM
10
155.000
20
81.950
30
0
0
SEQEND
0
POLYLINE
8
DIM
66
1
70
1
0
VERTEX
8
DIM
10
283.000
20
83.000
30
0
0
VERTEX
8
DIM
10
286.000
20
81.950
30
0
0
VERTEX
8
DIM
10
286.000
20
84.050
30
0
0
SEQEND
0
TEXT
8
TEXT
10
215.500
20
86.000
30
0
40
3.200
1
125
50
0.000
7
STANDARD
0
LINE
8
DIM
10
123.000
20
120.000
30
0
11
123.000
21
86.000
31
0
0
LINE
8
DIM
10
148.000
20
120.000
30
0
11
148.000
21
86.000
31
0
0
LINE
8
DIM
10
123.000
20
86.000
30
0
11
148.000
21
86.000
31
0
0
POLYLINE
8
DIM
66
1
70
1
0
VERTEX
8
DIM
10
123.000
20
86.000
30
0
0
VERTEX
8
DIM
10
120.000
20
87.050
30
0
0
VERTEX
8
DIM
10
120.000
20
84.950
30
0
0
SEQEND
0
POLYLINE
8
DIM
66
1
70
1
0
VERTEX
8
DIM
10
148.000
20
86.000
30
0
0
VERTEX
8
DIM
10
151.000
20
84.950
30
0
0
VERTEX
8
DIM
10
151.000
20
87.050
30
0
0
SEQEND
0
TEXT
8
TEXT
10
130.500
20
89.000
30
0
40
3.200
1
25
50
0.000
7
STANDARD
0
LINE
8
DIM
10
148.000
20
105.000
30
0
11
148.000
21
86.000
31
0
0
LINE
8
DIM
10
158.000
20
105.000
30
0
11
158.000
21
86.000
31
0
0
LINE
8
DIM
10
148.000
20
86.000
30
0
11
158.000
21
86.000
31
0
0
POLYLINE
8
DIM
66
1
70
1
0
VERTEX
8
DIM
10
148.000
20
86.000
30
0
0
VERTEX
8
DIM
10
145.000
20
87.050
30
0
0
VERTEX
8
DIM
10
145.000
20
84.950
30
0
0
SEQEND
0
POLYLINE
8
DIM
66
1
70
1
0
VERTEX
8
DIM
10
158.000
20
86.000
30
0
0
VERTEX
8
DIM
10
161.000
20
84.950
30
0
0
VERTEX
8
DIM
10
161.000
20
87.050
30
0
0
SEQEND
0
TEXT
8
TEXT
10
148.000
20
89.000
30
0
40
3.200
1
10
50
0.000
7
STANDARD
0
LINE
8
DIM
10
233.000
20
120.000
30
0
11
233.000
21
105.000
31
0
0
LINE
8
DIM
10
283.000
20
120.000
30
0
11
283.000
21
105.000
31
0
0
LINE
8
DIM
10
233.000
20
105.000
30
0
11
283.000
21
105.000
31
0
0
POLYLINE
8
DIM
66
1
70
1
0
VERTEX
8
DIM
10
233.000
20
105.000
30
0
0
VERTEX
8
DIM
10
230.000
20
106.050
30
0
0
VERTEX
8
DIM
10
230.000
20
103.950
30
0
0
SEQEND
0
POLYLINE
8
DIM
66
1
70
1
0
VERTEX
8
DIM
10
283.000
20
105.000
30
0
0
VERTEX
8
DIM
10
286.000
20
103.950
30
0
0
VERTEX
8
DIM
10
286.000
20
106.050
30
0
0
SEQEND
0
TEXT
8
TEXT
10
253.000
20
108.000
30
0
40
3.200
1
50
50
0.000
7
STANDARD
0
LINE
8
DIM
10
243.000
20
138.000
30
0
11
243.000
21
121.000
31
0
0
LINE
8
DIM
10
278.000
20
138.000
30
0
11
278.000
21
121.000
31
0
0
LINE
8
DIM
10
243.000
20
121.000
30
0
11
278.000
21
121.000
31
0
0
POLYLINE
8
DIM
66
1
70
1
0
VERTEX
8
DIM
10
243.000
20
121.000
30
0
0
VERTEX
8
DIM
10
240.000
20
122.050
30
0
0
VERTEX
8
DIM
10
240.000
20
119.950
30
0
0
SEQEND
0
POLYLINE
8
DIM
66
1
70
1
0
VERTEX
8
DIM
10
278.000
20
121.000
30
0
0
VERTEX
8
DIM
10
281.000
20
119.950
30
0
0
VERTEX
8
DIM
10
281.000
20
122.050
30
0
0
SEQEND
0
TEXT
8
TEXT
10
255.500
20
124.000
30
0
40
3.200
1
40
50
0.000
7
STANDARD
0
LINE
8
DIM
10
83.000
20
120.000
30
0
11
43.000
21
120.000
31
0
0
LINE
8
DIM
10
83.000
20
180.000
30
0
11
43.000
21
180.000
31
0
0
LINE
8
DIM
10
43.000
20
120.000
30
0
11
43.000
21
180.000
31
0
0
POLYLINE
8
DIM
66
1
70
1
0
VERTEX
8
DIM
10
43.000
20
120.000
30
0
0
VERTEX
8
DIM
10
41.950
20
117.000
30
0
0
VERTEX
8
DIM
10
44.050
20
117.000
30
0
0
SEQEND
0
POLYLINE
8
DIM
66
1
70
1
0
VERTEX
8
DIM
10
43.000
20
180.000
30
0
0
VERTEX
8
DIM
10
44.050
20
183.000
30
0
0
VERTEX
8
DIM
10
41.950
20
183.000
30
0
0
SEQEND
0
TEXT
8
TEXT
10
37.000
20
143.000
30
0
40
3.200
1
%%c60js6
50
90.000
7
STANDARD
0
LINE
8
DIM
10
123.000
20
135.000
30
0
11
70.000
21
135.000
31
0
0
LINE
8
DIM
10
123.000
20
165.000
30
0
11
70.000
21
165.000
31
0
0
LINE
8
DIM
10
70.000
20
135.000
30
0
11
70.000
21
165.000
31
0
0
POLYLINE
8
DIM
66
1
70
1
0
VERTEX
8
DIM
10
70.000
20
135.000
30
0
0
VERTEX
8
DIM
10
68.950
20
132.000
30
0
0
VERTEX
8
DIM
10
71.050
20
132.000
30
0
0
SEQEND
0
POLYLINE
8
DIM
66
1
70
1
0
VERTEX
8
DIM
10
70.000
20
165.000
30
0
0
VERTEX
8
DIM
10
71.050
20
168.000
30
0
0
VERTEX
8
DIM
10
68.950
20
168.000
30
0
0
SEQEND
0
TEXT
8
TEXT
10
64.000
20
143.000
30
0
40
3.200
1
%%c30
50
90.000
7
STANDARD
0
LINE
8
DIM
10
163.000
20
105.000
30
0
11
196.000
21
105.000
31
0
0
LINE
8
DIM
10
163.000
20
195.000
30
0
11
196.000
21
195.000
31
0
0
LINE
8
DIM
10
196.000
20
105.000
30
0
11
196.000
21
195.000
31
0
0
POLYLINE
8
DIM
66
1
70
1
0
VERTEX
8
DIM
10
196.000
20
105.000
30
0
0
VERTEX
8
DIM
10
194.950
20
102.000
30
0
0
VERTEX
8
DIM
10
197.050
20
102.000
30
0
0
SEQEND
0
POLYLINE
8
DIM
66
1
70
1
0
VERTEX
8
DIM
10
196.000
20
195.000
30
0
0
VERTEX
8
DIM
10
197.050
20
198.000
30
0
0
VERTEX
8
DIM
10
194.950
20
198.000
30
0
0
SEQEND
0
TEXT
8
TEXT
10
190.000
20
143.000
30
0
40
3.200
1
%%c90
50
90.000
7
STANDARD
0
LINE
8
DIM
10
158.000
20
127.634
30
0
11
174.000
21
127.634
31
0
0
LINE
8
DIM
10
158.000
20
172.366
30
0
11
174.000
21
172.366
31
0
0
LINE
8
DIM
10
174.000
20
127.634
30
0
11
174.000
21
172.366
31
0
0
POLYLINE
8
DIM
66
1
70
1
0
VERTEX
8
DIM
10
174.000
20
127.634
30
0
0
VERTEX
8
DIM
10
172.950
20
124.634
30
0
0
VERTEX
8
DIM
10
175.050
20
124.634
30
0
0
SEQEND
0
POLYLINE
8
DIM
66
1
70
1
0
VERTEX
8
DIM
10
174.000
20
172.366
30
0
0
VERTEX
8
DIM
10
175.050
20
175.366
30
0
0
VERTEX
8
DIM
10
172.950
20
175.366
30
0
0
SEQEND
0
TEXT
8
TEXT
10
168.000
20
143.000
30
0
40
3.200
1
%%c44.732
50
90.000
7
STANDARD
0
LINE
8
DIM
10
283.000
20
140.000
30
0
11
303.000
21
140.000
31
0
0
LINE
8
DIM
10
283.000
20
160.000
30
0
11
303.000
21
160.000
31
0
0
LINE
8
DIM
10
303.000
20
140.000
30
0
11
303.000
21
160.000
31
0
0
POLYLINE
8
DIM
66
1
70
1
0
VERTEX
8
DIM
10
303.000
20
140.000
30
0
0
VERTEX
8
DIM
10
301.950
20
137.000
30
0
0
VERTEX
8
DIM
10
304.050
20
137.000
30
0
0
SEQEND
0
POLYLINE
8
DIM
66
1
70
1
0
VERTEX
8
DIM
10
303.000
20
160.000
30
0
0
VERTEX
8
DIM
10
304.050
20
163.000
30
0
0
VERTEX
8
DIM
10
301.950
20
163.000
30
0
0
SEQEND
0
TEXT
8
TEXT
10
297.000
20
143.000
30
0
40
3.200
1
M20-6H
50
90.000
7
STANDARD
0
TEXT
8
TEXT
10
98.000
20
170.000
30
0
40
3.500
1
60%%d
50
0.000
7
STANDARD
0
TEXT
8
TEXT
10
171.000
20
115.000
30
0
40
3.200
1
4x1
50
0.000
7
STANDARD
0
TEXT
8
TEXT
10
132.000
20
107.000
30
0
40
3.200
1
2x1
50
0.000
7
STANDARD
0
TEXT
8
TEXT
10
216.000
20
192.000
30
0
40
3.200
1
Rest taper 5%%d (1:19.002)
50
0.000
7
STANDARD
0
LINE
8
SYMBOL
10
75.000
20
222.000
30
0
11
80.000
21
230.000
31
0
0
LINE
8
SYMBOL
10
80.000
20
230.000
30
0
11
85.000
21
222.000
31
0
0
LINE
8
SYMBOL
10
85.000
20
222.000
30
0
11
103.000
21
222.000
31
0
0
TEXT
8
TEXT
10
86.000
20
224.000
30
0
40
3.200
1
Ra1.6
50
0.000
7
STANDARD
0
LINE
8
SYMBOL
10
100.000
20
210.000
30
0
11
105.000
21
218.000
31
0
0
LINE
8
SYMBOL
10
105.000
20
218.000
30
0
11
110.000
21
210.000
31
0
0
LINE
8
SYMBOL
10
110.000
20
210.000
30
0
11
128.000
21
210.000
31
0
0
TEXT
8
TEXT
10
111.000
20
212.000
30
0
40
3.200
1
Ra0.8
50
0.000
7
STANDARD
0
LINE
8
SYMBOL
10
194.000
20
223.000
30
0
11
199.000
21
231.000
31
0
0
LINE
8
SYMBOL
10
199.000
20
231.000
30
0
11
204.000
21
223.000
31
0
0
LINE
8
SYMBOL
10
204.000
20
223.000
30
0
11
222.000
21
223.000
31
0
0
TEXT
8
TEXT
10
205.000
20
225.000
30
0
40
3.200
1
Ra1.6
50
0.000
7
STANDARD
0
LINE
8
SYMBOL
10
299.000
20
188.000
30
0
11
304.000
21
196.000
31
0
0
LINE
8
SYMBOL
10
304.000
20
196.000
30
0
11
309.000
21
188.000
31
0
0
LINE
8
SYMBOL
10
309.000
20
188.000
30
0
11
327.000
21
188.000
31
0
0
TEXT
8
TEXT
10
310.000
20
190.000
30
0
40
3.200
1
Ra3.2
50
0.000
7
STANDARD
0
POLYLINE
8
DIM
66
1
70
1
0
VERTEX
8
DIM
10
75.000
20
246.000
30
0
0
VERTEX
8
DIM
10
87.000
20
246.000
30
0
0
VERTEX
8
DIM
10
87.000
20
254.000
30
0
0
VERTEX
8
DIM
10
75.000
20
254.000
30
0
0
SEQEND
0
TEXT
8
TEXT
10
77.000
20
248.200
30
0
40
3.000
1
RUN
50
0.000
7
STANDARD
0
POLYLINE
8
DIM
66
1
70
1
0
VERTEX
8
DIM
10
87.000
20
246.000
30
0
0
VERTEX
8
DIM
10
105.000
20
246.000
30
0
0
VERTEX
8
DIM
10
105.000
20
254.000
30
0
0
VERTEX
8
DIM
10
87.000
20
254.000
30
0
0
SEQEND
0
TEXT
8
TEXT
10
89.000
20
248.200
30
0
40
3.000
1
0.025
50
0.000
7
STANDARD
0
POLYLINE
8
DIM
66
1
70
1
0
VERTEX
8
DIM
10
105.000
20
246.000
30
0
0
VERTEX
8
DIM
10
133.000
20
246.000
30
0
0
VERTEX
8
DIM
10
133.000
20
254.000
30
0
0
VERTEX
8
DIM
10
105.000
20
254.000
30
0
0
SEQEND
0
TEXT
8
TEXT
10
107.000
20
248.200
30
0
40
3.000
1
A-B
50
0.000
7
STANDARD
0
LINE
8
DIM
10
135.000
20
246.000
30
0
11
135.000
21
220.000
31
0
0
POLYLINE
8
DIM
66
1
70
1
0
VERTEX
8
DIM
10
135.000
20
220.000
30
0
0
VERTEX
8
DIM
10
135.875
20
222.500
30
0
0
VERTEX
8
DIM
10
134.125
20
222.500
30
0
0
SEQEND
0
POLYLINE
8
DIM
66
1
70
1
0
VERTEX
8
DIM
10
92.000
20
66.000
30
0
0
VERTEX
8
DIM
10
104.000
20
66.000
30
0
0
VERTEX
8
DIM
10
104.000
20
74.000
30
0
0
VERTEX
8
DIM
10
92.000
20
74.000
30
0
0
SEQEND
0
TEXT
8
TEXT
10
94.000
20
68.200
30
0
40
3.000
1
RUN
50
0.000
7
STANDARD
0
POLYLINE
8
DIM
66
1
70
1
0
VERTEX
8
DIM
10
104.000
20
66.000
30
0
0
VERTEX
8
DIM
10
122.000
20
66.000
30
0
0
VERTEX
8
DIM
10
122.000
20
74.000
30
0
0
VERTEX
8
DIM
10
104.000
20
74.000
30
0
0
SEQEND
0
TEXT
8
TEXT
10
106.000
20
68.200
30
0
40
3.000
1
0.025
50
0.000
7
STANDARD
0
POLYLINE
8
DIM
66
1
70
1
0
VERTEX
8
DIM
10
122.000
20
66.000
30
0
0
VERTEX
8
DIM
10
150.000
20
66.000
30
0
0
VERTEX
8
DIM
10
150.000
20
74.000
30
0
0
VERTEX
8
DIM
10
122.000
20
74.000
30
0
0
SEQEND
0
TEXT
8
TEXT
10
124.000
20
68.200
30
0
40
3.000
1
C
50
0.000
7
STANDARD
0
POLYLINE
8
DIM
66
1
70
1
0
VERTEX
8
DIM
10
167.000
20
189.000
30
0
0
VERTEX
8
DIM
10
174.000
20
189.000
30
0
0
VERTEX
8
DIM
10
174.000
20
196.000
30
0
0
VERTEX
8
DIM
10
167.000
20
196.000
30
0
0
SEQEND
0
TEXT
8
TEXT
10
169.100
20
190.400
30
0
40
3.200
1
A
50
0.000
7
STANDARD
0
POLYLINE
8
DIM
66
1
70
1
0
VERTEX
8
DIM
10
178.000
20
186.000
30
0
0
VERTEX
8
DIM
10
179.050
20
189.000
30
0
0
VERTEX
8
DIM
10
176.950
20
189.000
30
0
0
SEQEND
0
POLYLINE
8
DIM
66
1
70
1
0
VERTEX
8
DIM
10
104.000
20
114.000
30
0
0
VERTEX
8
DIM
10
111.000
20
114.000
30
0
0
VERTEX
8
DIM
10
111.000
20
121.000
30
0
0
VERTEX
8
DIM
10
104.000
20
121.000
30
0
0
SEQEND
0
TEXT
8
TEXT
10
106.100
20
115.400
30
0
40
3.200
1
B
50
0.000
7
STANDARD
0
POLYLINE
8
DIM
66
1
70
1
0
VERTEX
8
DIM
10
62.000
20
113.000
30
0
0
VERTEX
8
DIM
10
69.000
20
113.000
30
0
0
VERTEX
8
DIM
10
69.000
20
120.000
30
0
0
VERTEX
8
DIM
10
62.000
20
120.000
30
0
0
SEQEND
0
TEXT
8
TEXT
10
64.100
20
114.400
30
0
40
3.200
1
C
50
0.000
7
STANDARD
0
LINE
8
DIM
10
110.000
20
132.000
30
0
11
122.000
21
142.000
31
0
0
POLYLINE
8
DIM
66
1
70
1
0
VERTEX
8
DIM
10
122.000
20
142.000
30
0
0
VERTEX
8
DIM
10
119.450
20
141.283
30
0
0
VERTEX
8
DIM
10
120.454
20
139.849
30
0
0
SEQEND
0
CIRCLE
8
OBJECT
10
116.000
20
54.000
30
0
40
27.000
0
LINE
8
CENTER
10
82.000
20
54.000
30
0
11
163.000
21
54.000
31
0
0
LINE
8
CENTER
10
116.000
20
20.000
30
0
11
116.000
21
88.000
31
0
0
LINE
8
HATCH
10
92.000
20
28.000
30
0
11
142.000
21
80.000
31
0
0
LINE
8
HATCH
10
98.000
20
28.000
30
0
11
142.000
21
80.000
31
0
0
LINE
8
HATCH
10
104.000
20
28.000
30
0
11
142.000
21
80.000
31
0
0
LINE
8
HATCH
10
110.000
20
28.000
30
0
11
142.000
21
80.000
31
0
0
LINE
8
HATCH
10
116.000
20
28.000
30
0
11
142.000
21
80.000
31
0
0
LINE
8
HATCH
10
122.000
20
28.000
30
0
11
142.000
21
80.000
31
0
0
LINE
8
HATCH
10
128.000
20
28.000
30
0
11
142.000
21
80.000
31
0
0
LINE
8
HATCH
10
134.000
20
28.000
30
0
11
142.000
21
80.000
31
0
0
LINE
8
HATCH
10
140.000
20
28.000
30
0
11
142.000
21
80.000
31
0
0
LINE
8
OBJECT
10
140.000
20
63.000
30
0
11
158.000
21
63.000
31
0
0
LINE
8
OBJECT
10
140.000
20
45.000
30
0
11
158.000
21
45.000
31
0
0
LINE
8
OBJECT
10
158.000
20
45.000
30
0
11
158.000
21
63.000
31
0
0
LINE
8
DIM
10
89.000
20
27.000
30
0
11
89.000
21
18.000
31
0
0
LINE
8
DIM
10
143.000
20
27.000
30
0
11
143.000
21
18.000
31
0
0
LINE
8
DIM
10
89.000
20
18.000
30
0
11
143.000
21
18.000
31
0
0
POLYLINE
8
DIM
66
1
70
1
0
VERTEX
8
DIM
10
89.000
20
18.000
30
0
0
VERTEX
8
DIM
10
86.000
20
19.050
30
0
0
VERTEX
8
DIM
10
86.000
20
16.950
30
0
0
SEQEND
0
POLYLINE
8
DIM
66
1
70
1
0
VERTEX
8
DIM
10
143.000
20
18.000
30
0
0
VERTEX
8
DIM
10
146.000
20
16.950
30
0
0
VERTEX
8
DIM
10
146.000
20
19.050
30
0
0
SEQEND
0
TEXT
8
TEXT
10
111.000
20
21.000
30
0
40
3.200
1
54 0/-0.2
50
0.000
7
STANDARD
0
LINE
8
DIM
10
158.000
20
45.000
30
0
11
171.000
21
45.000
31
0
0
LINE
8
DIM
10
158.000
20
63.000
30
0
11
171.000
21
63.000
31
0
0
LINE
8
DIM
10
171.000
20
45.000
30
0
11
171.000
21
63.000
31
0
0
POLYLINE
8
DIM
66
1
70
1
0
VERTEX
8
DIM
10
171.000
20
45.000
30
0
0
VERTEX
8
DIM
10
169.950
20
42.000
30
0
0
VERTEX
8
DIM
10
172.050
20
42.000
30
0
0
SEQEND
0
POLYLINE
8
DIM
66
1
70
1
0
VERTEX
8
DIM
10
171.000
20
63.000
30
0
0
VERTEX
8
DIM
10
172.050
20
66.000
30
0
0
VERTEX
8
DIM
10
169.950
20
66.000
30
0
0
SEQEND
0
TEXT
8
TEXT
10
165.000
20
47.000
30
0
40
3.200
1
18H9
50
90.000
7
STANDARD
0
LINE
8
SYMBOL
10
159.000
20
84.000
30
0
11
164.000
21
92.000
31
0
0
LINE
8
SYMBOL
10
164.000
20
92.000
30
0
11
169.000
21
84.000
31
0
0
LINE
8
SYMBOL
10
169.000
20
84.000
30
0
11
187.000
21
84.000
31
0
0
TEXT
8
TEXT
10
170.000
20
86.000
30
0
40
3.200
1
Ra3.2
50
0.000
7
STANDARD
0
LINE
8
SYMBOL
10
166.000
20
12.000
30
0
11
171.000
21
20.000
31
0
0
LINE
8
SYMBOL
10
171.000
20
20.000
30
0
11
176.000
21
12.000
31
0
0
LINE
8
SYMBOL
10
176.000
20
12.000
30
0
11
194.000
21
12.000
31
0
0
TEXT
8
TEXT
10
177.000
20
14.000
30
0
40
3.200
1
Ra6.3
50
0.000
7
STANDARD
0
TEXT
8
TEXT
10
318.000
20
177.000
30
0
40
5.000
1
Jishu Yaoqiu / Technical Requirements
50
0.000
7
STANDARD
0
TEXT
8
TEXT
10
290.000
20
161.000
30
0
40
3.100
1
1. Tip quenched, hardness 40-45HRC.
50
0.000
7
STANDARD
0
TEXT
8
TEXT
10
290.000
20
151.000
30
0
40
3.100
1
2. Unmarked chamfer C1.
50
0.000
7
STANDARD
0
TEXT
8
TEXT
10
290.000
20
141.000
30
0
40
3.100
1
3. Unmarked size tolerance: GB/T 1804-2000-m.
50
0.000
7
STANDARD
0
TEXT
8
TEXT
10
290.000
20
131.000
30
0
40
3.100
1
4. Unmarked geometric tolerance: GB/T 1184-1996-K.
50
0.000
7
STANDARD
0
TEXT
8
TEXT
10
290.000
20
121.000
30
0
40
3.100
1
Chinese original is documented in README.
50
0.000
7
STANDARD
0
LINE
8
SYMBOL
10
350.000
20
82.000
30
0
11
355.000
21
90.000
31
0
0
LINE
8
SYMBOL
10
355.000
20
90.000
30
0
11
360.000
21
82.000
31
0
0
LINE
8
SYMBOL
10
360.000
20
82.000
30
0
11
378.000
21
82.000
31
0
0
TEXT
8
TEXT
10
361.000
20
84.000
30
0
40
3.200
1
Ra12.5
50
0.000
7
STANDARD
0
TEXT
8
TEXT
10
382.000
20
82.000
30
0
40
7.000
1
V
50
0.000
7
STANDARD
0
POLYLINE
8
BORDER
66
1
70
1
0
VERTEX
8
BORDER
10
214.000
20
0.000
30
0
0
VERTEX
8
BORDER
10
420.000
20
0.000
30
0
0
VERTEX
8
BORDER
10
420.000
20
70.000
30
0
0
VERTEX
8
BORDER
10
214.000
20
70.000
30
0
0
SEQEND
0
LINE
8
BORDER
10
214.000
20
15.000
30
0
11
420.000
21
15.000
31
0
0
LINE
8
BORDER
10
214.000
20
30.000
30
0
11
420.000
21
30.000
31
0
0
LINE
8
BORDER
10
214.000
20
45.000
30
0
11
420.000
21
45.000
31
0
0
LINE
8
BORDER
10
214.000
20
70.000
30
0
11
420.000
21
70.000
31
0
0
LINE
8
BORDER
10
300.000
20
0.000
30
0
11
300.000
21
70.000
31
0
0
LINE
8
BORDER
10
350.000
20
0.000
30
0
11
350.000
21
70.000
31
0
0
TEXT
8
TEXT
10
316.000
20
53.000
30
0
40
3.500
1
Hefei University of Technology
50
0.000
7
STANDARD
0
TEXT
8
TEXT
10
327.000
20
32.000
30
0
40
4.500
1
Dingjian / Center Point
50
0.000
7
STANDARD
0
TEXT
8
TEXT
10
318.000
20
10.000
30
0
40
5.000
1
LJT03.05
50
0.000
7
STANDARD
0
TEXT
8
TEXT
10
236.000
20
52.000
30
0
40
6.000
1
45
50
0.000
7
STANDARD
0
LINE
8
BORDER
10
214.000
20
0.000
30
0
11
214.000
21
70.000
31
0
0
LINE
8
BORDER
10
226.000
20
0.000
30
0
11
226.000
21
70.000
31
0
0
LINE
8
BORDER
10
238.000
20
0.000
30
0
11
238.000
21
70.000
31
0
0
LINE
8
BORDER
10
250.000
20
0.000
30
0
11
250.000
21
70.000
31
0
0
LINE
8
BORDER
10
262.000
20
0.000
30
0
11
262.000
21
70.000
31
0
0
LINE
8
BORDER
10
274.000
20
0.000
30
0
11
274.000
21
70.000
31
0
0
LINE
8
BORDER
10
286.000
20
0.000
30
0
11
286.000
21
70.000
31
0
0
LINE
8
BORDER
10
298.000
20
0.000
30
0
11
298.000
21
70.000
31
0
0
LINE
8
BORDER
10
214.000
20
0.000
30
0
11
300.000
21
0.000
31
0
0
LINE
8
BORDER
10
214.000
20
10.000
30
0
11
300.000
21
10.000
31
0
0
LINE
8
BORDER
10
214.000
20
20.000
30
0
11
300.000
21
20.000
31
0
0
LINE
8
BORDER
10
214.000
20
30.000
30
0
11
300.000
21
30.000
31
0
0
LINE
8
BORDER
10
214.000
20
40.000
30
0
11
300.000
21
40.000
31
0
0
LINE
8
BORDER
10
214.000
20
50.000
30
0
11
300.000
21
50.000
31
0
0
LINE
8
BORDER
10
214.000
20
60.000
30
0
11
300.000
21
60.000
31
0
0
LINE
8
BORDER
10
214.000
20
70.000
30
0
11
300.000
21
70.000
31
0
0
TEXT
8
TEXT
10
216.000
20
43.000
30
0
40
2.400
1
Mark Qty Zone Change Sign Date
50
0.000
7
STANDARD
0
TEXT
8
TEXT
10
216.000
20
33.000
30
0
40
2.400
1
Design Draw Check Process
50
0.000
7
STANDARD
0
TEXT
8
TEXT
10
216.000
20
13.000
30
0
40
2.400
1
Stage Mass Scale
50
0.000
7
STANDARD
0
TEXT
8
TEXT
10
304.000
20
17.000
30
0
40
2.500
1
Sheets  Page
50
0.000
7
STANDARD
0
POLYLINE
8
SYMBOL
66
1
70
1
0
VERTEX
8
SYMBOL
10
370.000
20
8.000
30
0
0
VERTEX
8
SYMBOL
10
380.000
20
5.000
30
0
0
VERTEX
8
SYMBOL
10
380.000
20
11.000
30
0
0
SEQEND
0
LINE
8
SYMBOL
10
382.000
20
8.000
30
0
11
392.000
21
8.000
31
0
0
CIRCLE
8
SYMBOL
10
399.000
20
8.000
30
0
40
6.000
0
CIRCLE
8
SYMBOL
10
399.000
20
8.000
30
0
40
2.000
0
LINE
8
CENTER
10
391.000
20
8.000
30
0
11
407.000
21
8.000
31
0
0
LINE
8
CENTER
10
399.000
20
0.000
30
0
11
399.000
21
16.000
31
0
0
ENDSEC
0
EOF